<svg width="30" height="30" viewBox="0 0 30 30" fill="none" xmlns="http://www.w3.org/2000/svg">
<g clip-path="url(#clip0_7_10)">
<foreignObject x="-4" y="11.7377" width="38" height="14.3019"><div xmlns="http://www.w3.org/1999/xhtml" style="backdrop-filter:blur(2px);clip-path:url(#bgblur_1_7_10_clip_path);height:100%;width:100%"></div></foreignObject><path data-figma-bg-blur-radius="4" d="M0 15.7377H30V22.0397H0V15.7377Z" fill="url(#paint0_linear_7_10)"/>
<foreignObject x="-4" y="19.6981" width="38" height="14.3019"><div xmlns="http://www.w3.org/1999/xhtml" style="backdrop-filter:blur(2px);clip-path:url(#bgblur_2_7_10_clip_path);height:100%;width:100%"></div></foreignObject><rect data-figma-bg-blur-radius="4" y="23.6981" width="30" height="6.30194" fill="url(#paint1_linear_7_10)"/>
<foreignObject x="-4" y="-4" width="38" height="14.3019"><div xmlns="http://www.w3.org/1999/xhtml" style="backdrop-filter:blur(2px);clip-path:url(#bgblur_3_7_10_clip_path);height:100%;width:100%"></div></foreignObject><path data-figma-bg-blur-radius="4" d="M0 0H30V6.30194H0V0Z" fill="url(#paint2_linear_7_10)"/>
<foreignObject x="-4" y="3.96033" width="38" height="14.3019"><div xmlns="http://www.w3.org/1999/xhtml" style="backdrop-filter:blur(2px);clip-path:url(#bgblur_4_7_10_clip_path);height:100%;width:100%"></div></foreignObject><rect data-figma-bg-blur-radius="4" y="7.96033" width="30" height="6.30194" fill="url(#paint3_linear_7_10)"/>
<mask id="mask0_7_10" style="mask-type:alpha" maskUnits="userSpaceOnUse" x="0" y="0" width="30" height="30">
<path d="M15 0C23.2843 0 30 6.71573 30 15C30 23.2843 23.2843 30 15 30C6.71573 30 0 23.2843 0 15C0 6.71573 6.71573 0 15 0Z" fill="#D9D9D9"/>
</mask>
<g mask="url(#mask0_7_10)">
</g>
</g>
<defs>
<clipPath id="bgblur_1_7_10_clip_path" transform="translate(4 -11.7377)"><path d="M0 15.7377H30V22.0397H0V15.7377Z"/>
</clipPath><clipPath id="bgblur_2_7_10_clip_path" transform="translate(4 -19.6981)"><rect y="23.6981" width="30" height="6.30194"/>
</clipPath><clipPath id="bgblur_3_7_10_clip_path" transform="translate(4 4)"><path d="M0 0H30V6.30194H0V0Z"/>
</clipPath><clipPath id="bgblur_4_7_10_clip_path" transform="translate(4 -3.96033)"><rect y="7.96033" width="30" height="6.30194"/>
</clipPath><linearGradient id="paint0_linear_7_10" x1="0" y1="18.8887" x2="30" y2="18.8887" gradientUnits="userSpaceOnUse">
<stop/>
<stop offset="1" stop-color="#B415FF"/>
</linearGradient>
<linearGradient id="paint1_linear_7_10" x1="0" y1="26.849" x2="30" y2="26.849" gradientUnits="userSpaceOnUse">
<stop stop-color="#B415FF"/>
<stop offset="1"/>
</linearGradient>
<linearGradient id="paint2_linear_7_10" x1="0" y1="3.15097" x2="30" y2="3.15097" gradientUnits="userSpaceOnUse">
<stop/>
<stop offset="1" stop-color="#B415FF"/>
</linearGradient>
<linearGradient id="paint3_linear_7_10" x1="0" y1="11.1113" x2="30" y2="11.1113" gradientUnits="userSpaceOnUse">
<stop stop-color="#B415FF"/>
<stop offset="1"/>
</linearGradient>
<clipPath id="clip0_7_10">
<rect width="30" height="30" rx="15" fill="white"/>
</clipPath>
</defs>
</svg>
