<svg width="150" height="150" viewBox="0 0 150 150" fill="none" xmlns="http://www.w3.org/2000/svg">
<g filter="url(#filter0_b_7_16)">
<path d="M42 45.1311H109V54.7941H42V45.1311Z" fill="url(#paint0_linear_7_16)"/>
</g>
<g filter="url(#filter1_b_7_16)">
<rect x="42" y="57.337" width="67" height="9.66298" fill="url(#paint1_linear_7_16)"/>
</g>
<g filter="url(#filter2_b_7_16)">
<path d="M42 21H109V30.663H42V21Z" fill="url(#paint2_linear_7_16)"/>
</g>
<g filter="url(#filter3_b_7_16)">
<rect x="42" y="33.2059" width="67" height="9.66298" fill="url(#paint3_linear_7_16)"/>
</g>
<path d="M48.4232 79.24C49.1165 79.24 49.7499 79.3867 50.3232 79.68C50.9099 79.96 51.3699 80.36 51.7032 80.88C52.0499 81.4 52.2232 81.98 52.2232 82.62C52.2232 84.3133 51.4565 85.38 49.9232 85.82V85.9C51.6699 86.3 52.5432 87.4467 52.5432 89.34C52.5432 90.06 52.3632 90.7 52.0032 91.26C51.6565 91.8067 51.1765 92.2333 50.5632 92.54C49.9499 92.8467 49.2765 93 48.5432 93H39.2632V79.24H48.4232ZM43.6832 84.6H46.7232C47.0165 84.6 47.2565 84.5 47.4432 84.3C47.6432 84.0867 47.7432 83.8267 47.7432 83.52V83.32C47.7432 83.0267 47.6432 82.78 47.4432 82.58C47.2432 82.3667 47.0032 82.26 46.7232 82.26H43.6832V84.6ZM43.6832 89.8H47.0432C47.3365 89.8 47.5765 89.7 47.7632 89.5C47.9632 89.2867 48.0632 89.0267 48.0632 88.72V88.52C48.0632 88.2133 47.9632 87.96 47.7632 87.76C47.5765 87.5467 47.3365 87.44 47.0432 87.44H43.6832V89.8ZM54.8296 79.24H66.7296V82.54H59.2496V84.44H65.6496V87.6H59.2496V89.7H66.8696V93H54.8296V79.24ZM77.1832 82.76V93H72.7632V82.76H68.2432V79.24H81.6832V82.76H77.1832ZM91.6168 82.76V93H87.1968V82.76H82.6768V79.24H96.1168V82.76H91.6168ZM106.67 93H102.25V87.66L96.7904 79.24H101.87L104.51 83.82H104.59L107.23 79.24H112.05L106.67 87.66V93Z" fill="white"/>
<path d="M54.6685 109.62C54.6685 109.429 54.6388 109.26 54.5796 109.112C54.5246 108.964 54.4251 108.828 54.2812 108.706C54.1374 108.583 53.9342 108.464 53.6719 108.35C53.4137 108.232 53.0837 108.111 52.6816 107.988C52.2415 107.853 51.8353 107.703 51.4629 107.538C51.0947 107.368 50.7731 107.174 50.498 106.954C50.223 106.729 50.0093 106.473 49.8569 106.186C49.7046 105.894 49.6284 105.557 49.6284 105.176C49.6284 104.8 49.7067 104.457 49.8633 104.148C50.0241 103.839 50.2505 103.572 50.5425 103.348C50.8387 103.12 51.1878 102.944 51.5898 102.821C51.9919 102.694 52.4362 102.631 52.9229 102.631C53.6084 102.631 54.1987 102.758 54.6938 103.012C55.1932 103.266 55.5762 103.606 55.8428 104.034C56.1136 104.461 56.249 104.933 56.249 105.449H54.6685C54.6685 105.145 54.6029 104.876 54.4717 104.643C54.3447 104.406 54.1501 104.22 53.8877 104.084C53.6296 103.949 53.3016 103.881 52.9038 103.881C52.5272 103.881 52.214 103.938 51.9644 104.053C51.7147 104.167 51.5285 104.321 51.4058 104.516C51.283 104.711 51.2217 104.931 51.2217 105.176C51.2217 105.35 51.2619 105.508 51.3423 105.652C51.4227 105.792 51.5454 105.923 51.7104 106.046C51.8755 106.164 52.0828 106.277 52.3325 106.382C52.5822 106.488 52.8763 106.59 53.2148 106.687C53.7269 106.839 54.1733 107.009 54.5542 107.195C54.9351 107.377 55.2524 107.584 55.5063 107.817C55.7603 108.05 55.9507 108.314 56.0776 108.61C56.2046 108.902 56.2681 109.235 56.2681 109.607C56.2681 109.996 56.1898 110.347 56.0332 110.661C55.8766 110.97 55.6523 111.234 55.3604 111.454C55.0726 111.67 54.7256 111.837 54.3193 111.956C53.9173 112.07 53.4688 112.127 52.9736 112.127C52.5293 112.127 52.0913 112.068 51.6597 111.949C51.2323 111.831 50.8429 111.651 50.4917 111.41C50.1405 111.164 49.8612 110.86 49.6538 110.496C49.4465 110.127 49.3428 109.698 49.3428 109.207H50.936C50.936 109.507 50.9868 109.764 51.0884 109.975C51.1942 110.187 51.3402 110.36 51.5264 110.496C51.7126 110.627 51.9284 110.724 52.1738 110.788C52.4235 110.851 52.6901 110.883 52.9736 110.883C53.346 110.883 53.6571 110.83 53.9067 110.724C54.1606 110.618 54.3511 110.47 54.478 110.28C54.605 110.089 54.6685 109.869 54.6685 109.62ZM57.2329 108.642V108.496C57.2329 108.001 57.3049 107.542 57.4487 107.119C57.5926 106.691 57.8 106.321 58.0708 106.008C58.3459 105.69 58.6802 105.445 59.0737 105.271C59.4715 105.094 59.9201 105.005 60.4194 105.005C60.923 105.005 61.3716 105.094 61.7651 105.271C62.1629 105.445 62.4993 105.69 62.7744 106.008C63.0495 106.321 63.259 106.691 63.4028 107.119C63.5467 107.542 63.6187 108.001 63.6187 108.496V108.642C63.6187 109.137 63.5467 109.596 63.4028 110.02C63.259 110.443 63.0495 110.813 62.7744 111.13C62.4993 111.444 62.165 111.689 61.7715 111.867C61.3779 112.04 60.9315 112.127 60.4321 112.127C59.9285 112.127 59.4779 112.04 59.0801 111.867C58.6865 111.689 58.3522 111.444 58.0771 111.13C57.8021 110.813 57.5926 110.443 57.4487 110.02C57.3049 109.596 57.2329 109.137 57.2329 108.642ZM58.7627 108.496V108.642C58.7627 108.951 58.7944 109.243 58.8579 109.518C58.9214 109.793 59.0208 110.034 59.1562 110.242C59.2917 110.449 59.4652 110.612 59.6768 110.73C59.8883 110.849 60.1401 110.908 60.4321 110.908C60.7157 110.908 60.9611 110.849 61.1685 110.73C61.38 110.612 61.5535 110.449 61.689 110.242C61.8244 110.034 61.9238 109.793 61.9873 109.518C62.055 109.243 62.0889 108.951 62.0889 108.642V108.496C62.0889 108.191 62.055 107.904 61.9873 107.633C61.9238 107.358 61.8223 107.114 61.6826 106.903C61.5472 106.691 61.3737 106.526 61.1621 106.408C60.9548 106.285 60.7072 106.224 60.4194 106.224C60.1317 106.224 59.882 106.285 59.6704 106.408C59.4631 106.526 59.2917 106.691 59.1562 106.903C59.0208 107.114 58.9214 107.358 58.8579 107.633C58.7944 107.904 58.7627 108.191 58.7627 108.496ZM66.9702 112H65.4404V104.472C65.4404 103.96 65.5356 103.53 65.7261 103.183C65.9207 102.832 66.1979 102.567 66.5576 102.39C66.9173 102.208 67.3426 102.117 67.8335 102.117C67.9858 102.117 68.1361 102.127 68.2842 102.148C68.4323 102.165 68.5762 102.193 68.7158 102.231L68.6777 103.412C68.5931 103.39 68.5 103.376 68.3984 103.367C68.3011 103.359 68.1953 103.354 68.0811 103.354C67.8483 103.354 67.6473 103.399 67.478 103.488C67.313 103.572 67.186 103.697 67.0972 103.862C67.0125 104.027 66.9702 104.23 66.9702 104.472V112ZM68.3857 105.132V106.249H64.3867V105.132H68.3857ZM72.645 105.132V106.249H68.7729V105.132H72.645ZM69.8901 103.45H71.4199V110.102C71.4199 110.314 71.4495 110.477 71.5088 110.591C71.5723 110.701 71.659 110.775 71.769 110.813C71.8791 110.851 72.0081 110.87 72.1562 110.87C72.262 110.87 72.3636 110.864 72.4609 110.851C72.5583 110.838 72.6366 110.826 72.6958 110.813L72.7021 111.981C72.5752 112.019 72.4271 112.053 72.2578 112.083C72.0928 112.112 71.9023 112.127 71.6865 112.127C71.3353 112.127 71.0243 112.066 70.7534 111.943C70.4826 111.816 70.271 111.611 70.1187 111.327C69.9663 111.044 69.8901 110.667 69.8901 110.197V103.45ZM75.6919 110.477L77.2788 105.132H78.2563L77.9897 106.731L76.3901 112H75.5142L75.6919 110.477ZM74.7588 105.132L75.9966 110.502L76.0981 112H75.1206L73.2607 105.132H74.7588ZM79.7417 110.438L80.9414 105.132H82.4331L80.5796 112H79.6021L79.7417 110.438ZM78.4214 105.132L79.9893 110.413L80.186 112H79.3101L77.6914 106.725L77.4248 105.132H78.4214ZM87.3462 110.623V107.347C87.3462 107.102 87.3018 106.89 87.2129 106.712C87.124 106.535 86.9886 106.397 86.8066 106.3C86.6289 106.202 86.4046 106.154 86.1338 106.154C85.8841 106.154 85.6683 106.196 85.4863 106.281C85.3044 106.365 85.1626 106.48 85.061 106.624C84.9595 106.767 84.9087 106.93 84.9087 107.112H83.3853C83.3853 106.841 83.4508 106.579 83.582 106.325C83.7132 106.071 83.9036 105.845 84.1533 105.646C84.403 105.447 84.7013 105.291 85.0483 105.176C85.3953 105.062 85.7847 105.005 86.2163 105.005C86.7326 105.005 87.1896 105.092 87.5874 105.265C87.9894 105.439 88.3047 105.701 88.5332 106.052C88.766 106.399 88.8823 106.835 88.8823 107.36V110.413C88.8823 110.726 88.9035 111.008 88.9458 111.257C88.9924 111.503 89.0579 111.716 89.1426 111.898V112H87.5747C87.5028 111.835 87.4456 111.625 87.4033 111.372C87.3652 111.113 87.3462 110.864 87.3462 110.623ZM87.5684 107.823L87.5811 108.769H86.4829C86.1994 108.769 85.9497 108.797 85.7339 108.852C85.5181 108.902 85.3382 108.979 85.1943 109.08C85.0505 109.182 84.9425 109.304 84.8706 109.448C84.7987 109.592 84.7627 109.755 84.7627 109.937C84.7627 110.119 84.805 110.286 84.8896 110.438C84.9743 110.587 85.097 110.703 85.2578 110.788C85.4229 110.872 85.6217 110.915 85.8545 110.915C86.1676 110.915 86.4406 110.851 86.6733 110.724C86.9103 110.593 87.0965 110.434 87.2319 110.248C87.3674 110.058 87.4393 109.878 87.4478 109.708L87.9429 110.388C87.8921 110.561 87.8053 110.747 87.6826 110.946C87.5599 111.145 87.3991 111.336 87.2002 111.518C87.0055 111.695 86.7707 111.841 86.4956 111.956C86.2248 112.07 85.9116 112.127 85.5562 112.127C85.1076 112.127 84.7077 112.038 84.3564 111.86C84.0052 111.678 83.7301 111.435 83.5312 111.13C83.3324 110.821 83.2329 110.472 83.2329 110.083C83.2329 109.719 83.3006 109.397 83.436 109.118C83.5757 108.835 83.7788 108.598 84.0454 108.407C84.3162 108.217 84.6463 108.073 85.0356 107.976C85.425 107.874 85.8693 107.823 86.3687 107.823H87.5684ZM92.0181 106.439V112H90.4883V105.132H91.9482L92.0181 106.439ZM94.1191 105.087L94.1064 106.509C94.0133 106.492 93.9118 106.48 93.8018 106.471C93.696 106.463 93.5902 106.458 93.4844 106.458C93.222 106.458 92.9914 106.497 92.7925 106.573C92.5936 106.645 92.4264 106.75 92.291 106.89C92.1598 107.026 92.0583 107.191 91.9863 107.385C91.9144 107.58 91.8721 107.798 91.8594 108.039L91.5103 108.064C91.5103 107.633 91.5526 107.233 91.6372 106.865C91.7218 106.497 91.8488 106.173 92.0181 105.894C92.1916 105.614 92.4074 105.396 92.6655 105.24C92.9279 105.083 93.2305 105.005 93.5732 105.005C93.6663 105.005 93.7658 105.013 93.8716 105.03C93.9816 105.047 94.0641 105.066 94.1191 105.087ZM97.9785 112.127C97.4707 112.127 97.0116 112.044 96.6011 111.879C96.1948 111.71 95.8478 111.475 95.5601 111.175C95.2765 110.874 95.0586 110.521 94.9062 110.115C94.7539 109.708 94.6777 109.271 94.6777 108.801V108.547C94.6777 108.009 94.756 107.523 94.9126 107.087C95.0692 106.651 95.2871 106.279 95.5664 105.97C95.8457 105.657 96.1758 105.417 96.5566 105.252C96.9375 105.087 97.3501 105.005 97.7944 105.005C98.2853 105.005 98.7148 105.087 99.083 105.252C99.4512 105.417 99.7559 105.65 99.9971 105.951C100.243 106.247 100.424 106.6 100.543 107.011C100.666 107.421 100.727 107.874 100.727 108.369V109.023H95.4204V107.925H99.2163V107.804C99.2078 107.529 99.1528 107.271 99.0513 107.03C98.9539 106.789 98.8037 106.594 98.6006 106.446C98.3975 106.298 98.1266 106.224 97.7881 106.224C97.5342 106.224 97.3078 106.279 97.1089 106.389C96.9142 106.494 96.7513 106.649 96.6201 106.852C96.4889 107.055 96.3874 107.301 96.3154 107.588C96.2477 107.872 96.2139 108.191 96.2139 108.547V108.801C96.2139 109.101 96.2541 109.381 96.3345 109.639C96.4191 109.893 96.5418 110.115 96.7026 110.305C96.8634 110.496 97.0581 110.646 97.2866 110.756C97.5151 110.862 97.7754 110.915 98.0674 110.915C98.4355 110.915 98.7635 110.84 99.0513 110.692C99.339 110.544 99.5887 110.335 99.8003 110.064L100.606 110.845C100.458 111.061 100.266 111.268 100.029 111.467C99.7918 111.661 99.502 111.82 99.1592 111.943C98.8206 112.066 98.4271 112.127 97.9785 112.127ZM49.4888 127H47.5146L47.5273 125.737H49.4888C50.0601 125.737 50.5382 125.612 50.9233 125.362C51.3127 125.113 51.6047 124.755 51.7993 124.29C51.9982 123.824 52.0977 123.27 52.0977 122.626V122.125C52.0977 121.626 52.0405 121.183 51.9263 120.798C51.8162 120.413 51.6512 120.09 51.4312 119.827C51.2153 119.565 50.9487 119.366 50.6313 119.23C50.3182 119.095 49.9564 119.027 49.5459 119.027H47.4766V117.758H49.5459C50.1595 117.758 50.7202 117.861 51.228 118.069C51.7358 118.272 52.1738 118.566 52.542 118.951C52.9144 119.336 53.2 119.798 53.3989 120.335C53.5978 120.872 53.6973 121.473 53.6973 122.138V122.626C53.6973 123.291 53.5978 123.892 53.3989 124.429C53.2 124.967 52.9144 125.428 52.542 125.813C52.1696 126.194 51.7253 126.488 51.209 126.695C50.6969 126.898 50.1235 127 49.4888 127ZM48.397 117.758V127H46.8037V117.758H48.397ZM58.1724 127.127C57.6646 127.127 57.2054 127.044 56.7949 126.879C56.3887 126.71 56.0417 126.475 55.7539 126.175C55.4704 125.874 55.2524 125.521 55.1001 125.115C54.9478 124.708 54.8716 124.271 54.8716 123.801V123.547C54.8716 123.009 54.9499 122.523 55.1064 122.087C55.263 121.651 55.481 121.279 55.7603 120.97C56.0396 120.657 56.3696 120.417 56.7505 120.252C57.1313 120.087 57.5439 120.005 57.9883 120.005C58.4792 120.005 58.9087 120.087 59.2769 120.252C59.645 120.417 59.9497 120.65 60.1909 120.951C60.4364 121.247 60.6183 121.6 60.7368 122.011C60.8595 122.421 60.9209 122.874 60.9209 123.369V124.023H55.6143V122.925H59.4102V122.804C59.4017 122.529 59.3467 122.271 59.2451 122.03C59.1478 121.789 58.9976 121.594 58.7944 121.446C58.5913 121.298 58.3205 121.224 57.9819 121.224C57.728 121.224 57.5016 121.279 57.3027 121.389C57.1081 121.494 56.9451 121.649 56.814 121.852C56.6828 122.055 56.5812 122.301 56.5093 122.588C56.4416 122.872 56.4077 123.191 56.4077 123.547V123.801C56.4077 124.101 56.4479 124.381 56.5283 124.639C56.613 124.893 56.7357 125.115 56.8965 125.305C57.0573 125.496 57.252 125.646 57.4805 125.756C57.709 125.862 57.9692 125.915 58.2612 125.915C58.6294 125.915 58.9574 125.84 59.2451 125.692C59.5329 125.544 59.7826 125.335 59.9941 125.064L60.8003 125.845C60.6522 126.061 60.4596 126.268 60.2227 126.467C59.9857 126.661 59.6958 126.82 59.353 126.943C59.0145 127.066 58.6209 127.127 58.1724 127.127ZM64.2598 125.788L65.9419 120.132H67.5288L65.1421 127H64.1519L64.2598 125.788ZM62.9712 120.132L64.6851 125.813L64.7676 127H63.7773L61.3779 120.132H62.9712ZM71.4136 127.127C70.9058 127.127 70.4466 127.044 70.0361 126.879C69.6299 126.71 69.2829 126.475 68.9951 126.175C68.7116 125.874 68.4937 125.521 68.3413 125.115C68.189 124.708 68.1128 124.271 68.1128 123.801V123.547C68.1128 123.009 68.1911 122.523 68.3477 122.087C68.5042 121.651 68.7222 121.279 69.0015 120.97C69.2808 120.657 69.6108 120.417 69.9917 120.252C70.3726 120.087 70.7852 120.005 71.2295 120.005C71.7204 120.005 72.1499 120.087 72.5181 120.252C72.8862 120.417 73.1909 120.65 73.4321 120.951C73.6776 121.247 73.8595 121.6 73.978 122.011C74.1007 122.421 74.1621 122.874 74.1621 123.369V124.023H68.8555V122.925H72.6514V122.804C72.6429 122.529 72.5879 122.271 72.4863 122.03C72.389 121.789 72.2388 121.594 72.0356 121.446C71.8325 121.298 71.5617 121.224 71.2231 121.224C70.9692 121.224 70.7428 121.279 70.5439 121.389C70.3493 121.494 70.1864 121.649 70.0552 121.852C69.924 122.055 69.8224 122.301 69.7505 122.588C69.6828 122.872 69.6489 123.191 69.6489 123.547V123.801C69.6489 124.101 69.6891 124.381 69.7695 124.639C69.8542 124.893 69.9769 125.115 70.1377 125.305C70.2985 125.496 70.4932 125.646 70.7217 125.756C70.9502 125.862 71.2104 125.915 71.5024 125.915C71.8706 125.915 72.1986 125.84 72.4863 125.692C72.7741 125.544 73.0238 125.335 73.2354 125.064L74.0415 125.845C73.8934 126.061 73.7008 126.268 73.4639 126.467C73.2269 126.661 72.937 126.82 72.5942 126.943C72.2557 127.066 71.8621 127.127 71.4136 127.127ZM76.9932 117.25V127H75.457V117.25H76.9932ZM78.377 123.642V123.496C78.377 123.001 78.4489 122.542 78.5928 122.119C78.7367 121.691 78.944 121.321 79.2148 121.008C79.4899 120.69 79.8242 120.445 80.2178 120.271C80.6156 120.094 81.0641 120.005 81.5635 120.005C82.0671 120.005 82.5156 120.094 82.9092 120.271C83.307 120.445 83.6434 120.69 83.9185 121.008C84.1935 121.321 84.403 121.691 84.5469 122.119C84.6908 122.542 84.7627 123.001 84.7627 123.496V123.642C84.7627 124.137 84.6908 124.596 84.5469 125.02C84.403 125.443 84.1935 125.813 83.9185 126.13C83.6434 126.444 83.3091 126.689 82.9155 126.867C82.522 127.04 82.0755 127.127 81.5762 127.127C81.0726 127.127 80.6219 127.04 80.2241 126.867C79.8306 126.689 79.4963 126.444 79.2212 126.13C78.9461 125.813 78.7367 125.443 78.5928 125.02C78.4489 124.596 78.377 124.137 78.377 123.642ZM79.9067 123.496V123.642C79.9067 123.951 79.9385 124.243 80.002 124.518C80.0654 124.793 80.1649 125.034 80.3003 125.242C80.4357 125.449 80.6092 125.612 80.8208 125.73C81.0324 125.849 81.2842 125.908 81.5762 125.908C81.8597 125.908 82.1051 125.849 82.3125 125.73C82.5241 125.612 82.6976 125.449 82.833 125.242C82.9684 125.034 83.0679 124.793 83.1313 124.518C83.1991 124.243 83.2329 123.951 83.2329 123.642V123.496C83.2329 123.191 83.1991 122.904 83.1313 122.633C83.0679 122.358 82.9663 122.114 82.8267 121.903C82.6912 121.691 82.5177 121.526 82.3062 121.408C82.0988 121.285 81.8512 121.224 81.5635 121.224C81.2757 121.224 81.026 121.285 80.8145 121.408C80.6071 121.526 80.4357 121.691 80.3003 121.903C80.1649 122.114 80.0654 122.358 80.002 122.633C79.9385 122.904 79.9067 123.191 79.9067 123.496ZM87.5811 121.452V129.641H86.0513V120.132H87.4604L87.5811 121.452ZM92.0562 123.502V123.636C92.0562 124.135 91.9969 124.598 91.8784 125.026C91.7642 125.449 91.5928 125.819 91.3643 126.137C91.14 126.45 90.8628 126.693 90.5327 126.867C90.2026 127.04 89.8218 127.127 89.3901 127.127C88.9627 127.127 88.5882 127.049 88.2666 126.892C87.9492 126.731 87.6805 126.505 87.4604 126.213C87.2404 125.921 87.0627 125.578 86.9272 125.185C86.7961 124.787 86.703 124.351 86.6479 123.877V123.363C86.703 122.859 86.7961 122.402 86.9272 121.992C87.0627 121.581 87.2404 121.228 87.4604 120.932C87.6805 120.635 87.9492 120.407 88.2666 120.246C88.584 120.085 88.9543 120.005 89.3774 120.005C89.8091 120.005 90.1921 120.09 90.5264 120.259C90.8607 120.424 91.1421 120.661 91.3706 120.97C91.5991 121.274 91.7705 121.643 91.8848 122.074C91.999 122.502 92.0562 122.978 92.0562 123.502ZM90.5264 123.636V123.502C90.5264 123.185 90.4967 122.891 90.4375 122.62C90.3783 122.345 90.2852 122.104 90.1582 121.896C90.0312 121.689 89.8683 121.528 89.6694 121.414C89.4748 121.296 89.2399 121.236 88.9648 121.236C88.694 121.236 88.4613 121.283 88.2666 121.376C88.0719 121.465 87.909 121.59 87.7778 121.75C87.6466 121.911 87.5451 122.1 87.4731 122.315C87.4012 122.527 87.3504 122.758 87.3208 123.007V124.239C87.3716 124.543 87.4583 124.823 87.5811 125.077C87.7038 125.331 87.8773 125.534 88.1016 125.686C88.3301 125.834 88.6221 125.908 88.9775 125.908C89.2526 125.908 89.4875 125.849 89.6821 125.73C89.8768 125.612 90.0355 125.449 90.1582 125.242C90.2852 125.03 90.3783 124.787 90.4375 124.512C90.4967 124.237 90.5264 123.945 90.5264 123.636ZM96.3853 127.127C95.8774 127.127 95.4183 127.044 95.0078 126.879C94.6016 126.71 94.2546 126.475 93.9668 126.175C93.6833 125.874 93.4653 125.521 93.313 125.115C93.1606 124.708 93.0845 124.271 93.0845 123.801V123.547C93.0845 123.009 93.1628 122.523 93.3193 122.087C93.4759 121.651 93.6938 121.279 93.9731 120.97C94.2524 120.657 94.5825 120.417 94.9634 120.252C95.3442 120.087 95.7568 120.005 96.2012 120.005C96.6921 120.005 97.1216 120.087 97.4897 120.252C97.8579 120.417 98.1626 120.65 98.4038 120.951C98.6493 121.247 98.8312 121.6 98.9497 122.011C99.0724 122.421 99.1338 122.874 99.1338 123.369V124.023H93.8271V122.925H97.623V122.804C97.6146 122.529 97.5596 122.271 97.458 122.03C97.3607 121.789 97.2104 121.594 97.0073 121.446C96.8042 121.298 96.5334 121.224 96.1948 121.224C95.9409 121.224 95.7145 121.279 95.5156 121.389C95.321 121.494 95.158 121.649 95.0269 121.852C94.8957 122.055 94.7941 122.301 94.7222 122.588C94.6545 122.872 94.6206 123.191 94.6206 123.547V123.801C94.6206 124.101 94.6608 124.381 94.7412 124.639C94.8258 124.893 94.9486 125.115 95.1094 125.305C95.2702 125.496 95.4648 125.646 95.6934 125.756C95.9219 125.862 96.1821 125.915 96.4741 125.915C96.8423 125.915 97.1702 125.84 97.458 125.692C97.7458 125.544 97.9954 125.335 98.207 125.064L99.0132 125.845C98.8651 126.061 98.6725 126.268 98.4355 126.467C98.1986 126.661 97.9087 126.82 97.5659 126.943C97.2274 127.066 96.8338 127.127 96.3853 127.127ZM101.863 121.439V127H100.333V120.132H101.793L101.863 121.439ZM103.964 120.087L103.952 121.509C103.859 121.492 103.757 121.48 103.647 121.471C103.541 121.463 103.435 121.458 103.33 121.458C103.067 121.458 102.837 121.497 102.638 121.573C102.439 121.645 102.272 121.75 102.136 121.89C102.005 122.026 101.903 122.191 101.832 122.385C101.76 122.58 101.717 122.798 101.705 123.039L101.355 123.064C101.355 122.633 101.398 122.233 101.482 121.865C101.567 121.497 101.694 121.173 101.863 120.894C102.037 120.614 102.253 120.396 102.511 120.24C102.773 120.083 103.076 120.005 103.418 120.005C103.512 120.005 103.611 120.013 103.717 120.03C103.827 120.047 103.909 120.066 103.964 120.087Z" fill="white"/>
<defs>
<filter id="filter0_b_7_16" x="38" y="41.1311" width="75" height="17.663" filterUnits="userSpaceOnUse" color-interpolation-filters="sRGB">
<feFlood flood-opacity="0" result="BackgroundImageFix"/>
<feGaussianBlur in="BackgroundImageFix" stdDeviation="2"/>
<feComposite in2="SourceAlpha" operator="in" result="effect1_backgroundBlur_7_16"/>
<feBlend mode="normal" in="SourceGraphic" in2="effect1_backgroundBlur_7_16" result="shape"/>
</filter>
<filter id="filter1_b_7_16" x="38" y="53.337" width="75" height="17.663" filterUnits="userSpaceOnUse" color-interpolation-filters="sRGB">
<feFlood flood-opacity="0" result="BackgroundImageFix"/>
<feGaussianBlur in="BackgroundImageFix" stdDeviation="2"/>
<feComposite in2="SourceAlpha" operator="in" result="effect1_backgroundBlur_7_16"/>
<feBlend mode="normal" in="SourceGraphic" in2="effect1_backgroundBlur_7_16" result="shape"/>
</filter>
<filter id="filter2_b_7_16" x="38" y="17" width="75" height="17.663" filterUnits="userSpaceOnUse" color-interpolation-filters="sRGB">
<feFlood flood-opacity="0" result="BackgroundImageFix"/>
<feGaussianBlur in="BackgroundImageFix" stdDeviation="2"/>
<feComposite in2="SourceAlpha" operator="in" result="effect1_backgroundBlur_7_16"/>
<feBlend mode="normal" in="SourceGraphic" in2="effect1_backgroundBlur_7_16" result="shape"/>
</filter>
<filter id="filter3_b_7_16" x="38" y="29.2059" width="75" height="17.663" filterUnits="userSpaceOnUse" color-interpolation-filters="sRGB">
<feFlood flood-opacity="0" result="BackgroundImageFix"/>
<feGaussianBlur in="BackgroundImageFix" stdDeviation="2"/>
<feComposite in2="SourceAlpha" operator="in" result="effect1_backgroundBlur_7_16"/>
<feBlend mode="normal" in="SourceGraphic" in2="effect1_backgroundBlur_7_16" result="shape"/>
</filter>
<linearGradient id="paint0_linear_7_16" x1="42" y1="49.9626" x2="109" y2="49.9626" gradientUnits="userSpaceOnUse">
<stop/>
<stop offset="1" stop-color="#B415FF"/>
</linearGradient>
<linearGradient id="paint1_linear_7_16" x1="42" y1="62.1685" x2="109" y2="62.1685" gradientUnits="userSpaceOnUse">
<stop stop-color="#B415FF"/>
<stop offset="1"/>
</linearGradient>
<linearGradient id="paint2_linear_7_16" x1="42" y1="25.8315" x2="109" y2="25.8315" gradientUnits="userSpaceOnUse">
<stop/>
<stop offset="1" stop-color="#B415FF"/>
</linearGradient>
<linearGradient id="paint3_linear_7_16" x1="42" y1="38.0374" x2="109" y2="38.0374" gradientUnits="userSpaceOnUse">
<stop stop-color="#B415FF"/>
<stop offset="1"/>
</linearGradient>
</defs>
</svg>
